<svg width="270" height="270" viewBox="0 0 270 270" fill="none" xmlns="http://www.w3.org/2000/svg">
<rect x="8" y="7" width="255" height="255" rx="127.5" fill="black"/>
<path d="M133.352 27.4956C133.435 26.0941 134.596 25 136 25C137.404 25 138.565 26.0941 138.648 27.4956L152.373 259.409C152.713 265.154 148.146 270 142.391 270H129.609C123.854 270 119.287 265.154 119.627 259.409L133.352 27.4956Z" fill="white"/>
<path d="M64.2924 73.4914C64.4097 72.0832 65.5869 71 67 71C68.4131 71 69.5903 72.0832 69.7076 73.4914L69.7509 74.0104C69.885 75.6197 68.6149 77 67 77C65.3851 77 64.115 75.6197 64.2491 74.0104L64.2924 73.4914Z" fill="white"/>
<path d="M65.1949 65.6609C65.2732 64.7221 66.0579 64 67 64C67.9421 64 68.7268 64.7221 68.8051 65.6609L68.8339 66.0069C68.9233 67.0798 68.0766 68 67 68C65.9234 68 65.0767 67.0798 65.1661 66.0069L65.1949 65.6609Z" fill="white"/>
<path d="M200.292 73.4914C200.41 72.0832 201.587 71 203 71C204.413 71 205.59 72.0832 205.708 73.4914L205.751 74.0104C205.885 75.6197 204.615 77 203 77C201.385 77 200.115 75.6197 200.249 74.0104L200.292 73.4914Z" fill="white"/>
<path d="M201.195 65.6609C201.273 64.7221 202.058 64 203 64C203.942 64 204.727 64.7221 204.805 65.6609L204.834 66.0069C204.923 67.0798 204.077 68 203 68C201.923 68 201.077 67.0798 201.166 66.0069L201.195 65.6609Z" fill="white"/>
<path d="M61 81.0896C61 79.9355 61.9355 79 63.0896 79H207.902C209.061 79 210 79.9395 210 81.0983C210 82.1775 209.181 83.0807 208.108 83.1866L139.461 89.9538C139.149 89.9845 138.835 89.9859 138.523 89.9579L62.9028 83.1708C61.8255 83.0741 61 82.1712 61 81.0896Z" fill="white"/>
</svg>
